<mxfile host="app.diagrams.net" modified="2023-10-18T08:41:18.447Z" agent="Mozilla/5.0 (Macintosh; Intel Mac OS X 10_15_7) AppleWebKit/605.1.15 (KHTML, like Gecko) Version/17.0 Safari/605.1.15" etag="UBDJQ2SiDbuk6xnqBnaB" version="22.0.4" type="device">
  <diagram name="Page-1" id="Oli-t33ubmhvUGODpBy1">
    <mxGraphModel dx="1044" dy="944" grid="1" gridSize="10" guides="1" tooltips="1" connect="1" arrows="1" fold="1" page="1" pageScale="1" pageWidth="827" pageHeight="1169" math="0" shadow="0">
      <root>
        <mxCell id="0" />
        <mxCell id="1" parent="0" />
        <mxCell id="KHm01q2iQBjfkX1WaD2K-33" style="edgeStyle=orthogonalEdgeStyle;rounded=0;orthogonalLoop=1;jettySize=auto;html=1;exitX=1;exitY=0.5;exitDx=0;exitDy=0;exitPerimeter=0;shadow=1;sketch=1;curveFitting=1;jiggle=2;" edge="1" parent="1" source="KHm01q2iQBjfkX1WaD2K-1" target="KHm01q2iQBjfkX1WaD2K-4">
          <mxGeometry relative="1" as="geometry" />
        </mxCell>
        <mxCell id="KHm01q2iQBjfkX1WaD2K-1" value="&lt;div style=&quot;&quot;&gt;&lt;span style=&quot;font-size: 24px; background-color: rgb(255, 255, 255);&quot;&gt;terreLuneEtiquete&lt;/span&gt;&lt;/div&gt;" style="strokeWidth=2;html=1;shape=mxgraph.flowchart.database;whiteSpace=wrap;shadow=1;sketch=1;curveFitting=1;jiggle=2;align=center;fontFamily=Verdana;fillColor=#f5f5f5;strokeColor=#666666;fontColor=#333333;" vertex="1" parent="1">
          <mxGeometry x="450" y="290" width="110" height="120" as="geometry" />
        </mxCell>
        <mxCell id="KHm01q2iQBjfkX1WaD2K-2" value="&lt;font style=&quot;font-size: 17px;&quot;&gt;&lt;span style=&quot;background-color: rgb(255, 255, 255);&quot;&gt;01_etiqueteurPerformance.xq&lt;/span&gt;&lt;br&gt;&lt;/font&gt;" style="whiteSpace=wrap;html=1;fontFamily=Verdana;sketch=1;curveFitting=1;jiggle=2;shadow=1;fillColor=#f5f5f5;strokeColor=#666666;fontColor=#333333;gradientColor=none;fillStyle=auto;" vertex="1" parent="1">
          <mxGeometry x="445" y="485" width="120" height="50" as="geometry" />
        </mxCell>
        <mxCell id="KHm01q2iQBjfkX1WaD2K-34" style="edgeStyle=orthogonalEdgeStyle;rounded=1;orthogonalLoop=1;jettySize=auto;html=1;entryX=0.5;entryY=1;entryDx=0;entryDy=0;shadow=1;sketch=1;curveFitting=1;jiggle=2;" edge="1" parent="1" source="KHm01q2iQBjfkX1WaD2K-4" target="KHm01q2iQBjfkX1WaD2K-5">
          <mxGeometry relative="1" as="geometry" />
        </mxCell>
        <mxCell id="KHm01q2iQBjfkX1WaD2K-4" value="&lt;font style=&quot;font-size: 17px;&quot;&gt;&lt;span style=&quot;background-color: rgb(255, 255, 255);&quot;&gt;02_csvMotsComposes.xq&lt;/span&gt;&lt;br&gt;&lt;/font&gt;" style="whiteSpace=wrap;html=1;fontFamily=Verdana;sketch=1;curveFitting=1;jiggle=2;shadow=1;fillColor=#f5f5f5;strokeColor=#666666;fontColor=#333333;rounded=0;glass=0;" vertex="1" parent="1">
          <mxGeometry x="690" y="320" width="120" height="60" as="geometry" />
        </mxCell>
        <mxCell id="KHm01q2iQBjfkX1WaD2K-35" style="edgeStyle=orthogonalEdgeStyle;rounded=1;orthogonalLoop=1;jettySize=auto;html=1;entryX=1;entryY=0.5;entryDx=0;entryDy=0;shadow=1;sketch=1;curveFitting=1;jiggle=2;" edge="1" parent="1" source="KHm01q2iQBjfkX1WaD2K-5" target="KHm01q2iQBjfkX1WaD2K-10">
          <mxGeometry relative="1" as="geometry">
            <Array as="points">
              <mxPoint x="750" y="90" />
            </Array>
          </mxGeometry>
        </mxCell>
        <mxCell id="KHm01q2iQBjfkX1WaD2K-5" value="&lt;font style=&quot;font-size: 17px;&quot;&gt;&lt;span style=&quot;background-color: rgb(255, 255, 255);&quot;&gt;res_listeOccurrencesMotsCCandidats.txt&lt;/span&gt;&lt;br&gt;&lt;/font&gt;" style="whiteSpace=wrap;html=1;fontFamily=Verdana;sketch=1;curveFitting=1;jiggle=2;shadow=1;fillColor=#d5e8d4;strokeColor=#82b366;rounded=1;glass=1;" vertex="1" parent="1">
          <mxGeometry x="690" y="180" width="120" height="60" as="geometry" />
        </mxCell>
        <mxCell id="KHm01q2iQBjfkX1WaD2K-32" style="edgeStyle=orthogonalEdgeStyle;rounded=1;orthogonalLoop=1;jettySize=auto;html=1;entryX=0.5;entryY=1;entryDx=0;entryDy=0;shadow=1;sketch=1;curveFitting=1;jiggle=2;" edge="1" parent="1" source="KHm01q2iQBjfkX1WaD2K-7" target="KHm01q2iQBjfkX1WaD2K-4">
          <mxGeometry relative="1" as="geometry" />
        </mxCell>
        <mxCell id="KHm01q2iQBjfkX1WaD2K-7" value="&lt;font size=&quot;5&quot;&gt;&lt;span style=&quot;background-color: rgb(255, 255, 255);&quot;&gt;motsComposes&lt;/span&gt;&lt;/font&gt;" style="strokeWidth=2;html=1;shape=mxgraph.flowchart.database;whiteSpace=wrap;shadow=1;sketch=1;curveFitting=1;jiggle=2;align=left;fontFamily=Verdana;fillColor=#f5f5f5;strokeColor=#666666;fontColor=#333333;gradientColor=none;" vertex="1" parent="1">
          <mxGeometry x="695" y="730" width="110" height="120" as="geometry" />
        </mxCell>
        <mxCell id="KHm01q2iQBjfkX1WaD2K-24" style="edgeStyle=orthogonalEdgeStyle;rounded=1;orthogonalLoop=1;jettySize=auto;html=1;shadow=1;sketch=1;curveFitting=1;jiggle=2;" edge="1" parent="1" source="KHm01q2iQBjfkX1WaD2K-8" target="KHm01q2iQBjfkX1WaD2K-2">
          <mxGeometry relative="1" as="geometry" />
        </mxCell>
        <mxCell id="KHm01q2iQBjfkX1WaD2K-8" value="&lt;font size=&quot;5&quot;&gt;&lt;span style=&quot;background-color: rgb(255, 255, 255);&quot;&gt;terreLune2&lt;br&gt;&lt;/span&gt;&lt;/font&gt;" style="strokeWidth=2;html=1;shape=mxgraph.flowchart.database;whiteSpace=wrap;shadow=1;sketch=1;curveFitting=1;jiggle=2;align=left;fontFamily=Verdana;fillColor=#f5f5f5;strokeColor=#666666;fontColor=#333333;" vertex="1" parent="1">
          <mxGeometry x="450" y="730" width="110" height="120" as="geometry" />
        </mxCell>
        <mxCell id="KHm01q2iQBjfkX1WaD2K-21" style="edgeStyle=orthogonalEdgeStyle;rounded=1;orthogonalLoop=1;jettySize=auto;html=1;exitX=0.5;exitY=0;exitDx=0;exitDy=0;exitPerimeter=0;entryX=0.5;entryY=1;entryDx=0;entryDy=0;shadow=1;sketch=1;curveFitting=1;jiggle=2;" edge="1" parent="1" source="KHm01q2iQBjfkX1WaD2K-9" target="KHm01q2iQBjfkX1WaD2K-15">
          <mxGeometry relative="1" as="geometry" />
        </mxCell>
        <mxCell id="KHm01q2iQBjfkX1WaD2K-9" value="&lt;font size=&quot;5&quot;&gt;&lt;span style=&quot;background-color: rgb(255, 255, 255);&quot;&gt;morphalou_3.1&lt;br&gt;&lt;/span&gt;&lt;/font&gt;" style="strokeWidth=2;html=1;shape=mxgraph.flowchart.database;whiteSpace=wrap;shadow=1;sketch=1;curveFitting=1;jiggle=2;align=left;fontFamily=Verdana;fillColor=#f5f5f5;strokeColor=#666666;fontColor=#333333;" vertex="1" parent="1">
          <mxGeometry x="140" y="730" width="110" height="120" as="geometry" />
        </mxCell>
        <mxCell id="KHm01q2iQBjfkX1WaD2K-10" value="&lt;font style=&quot;font-size: 17px;&quot;&gt;&lt;span style=&quot;background-color: rgb(255, 255, 255);&quot;&gt;03_mcIdentifier.xq&lt;/span&gt;&lt;br&gt;&lt;/font&gt;" style="whiteSpace=wrap;html=1;fontFamily=Verdana;sketch=1;curveFitting=1;jiggle=2;shadow=1;fillColor=#f5f5f5;strokeColor=#666666;fontColor=#333333;" vertex="1" parent="1">
          <mxGeometry x="490" y="60" width="120" height="60" as="geometry" />
        </mxCell>
        <mxCell id="KHm01q2iQBjfkX1WaD2K-38" style="edgeStyle=orthogonalEdgeStyle;rounded=1;orthogonalLoop=1;jettySize=auto;html=1;exitX=0.5;exitY=1;exitDx=0;exitDy=0;shadow=1;sketch=1;curveFitting=1;jiggle=2;" edge="1" parent="1" source="KHm01q2iQBjfkX1WaD2K-11" target="KHm01q2iQBjfkX1WaD2K-1">
          <mxGeometry relative="1" as="geometry" />
        </mxCell>
        <mxCell id="KHm01q2iQBjfkX1WaD2K-11" value="&lt;font style=&quot;font-size: 17px;&quot;&gt;&lt;span style=&quot;background-color: rgb(255, 255, 255);&quot;&gt;04_testCartoTexte.xq&lt;/span&gt;&lt;br&gt;&lt;/font&gt;" style="whiteSpace=wrap;html=1;fontFamily=Verdana;sketch=1;curveFitting=1;jiggle=2;shadow=1;fillColor=#f5f5f5;strokeColor=#666666;fontColor=#333333;" vertex="1" parent="1">
          <mxGeometry x="110" y="180" width="120" height="60" as="geometry" />
        </mxCell>
        <mxCell id="KHm01q2iQBjfkX1WaD2K-37" style="edgeStyle=orthogonalEdgeStyle;rounded=1;orthogonalLoop=1;jettySize=auto;html=1;entryX=0.5;entryY=0;entryDx=0;entryDy=0;shadow=1;sketch=1;curveFitting=1;jiggle=2;" edge="1" parent="1" source="KHm01q2iQBjfkX1WaD2K-14" target="KHm01q2iQBjfkX1WaD2K-11">
          <mxGeometry relative="1" as="geometry" />
        </mxCell>
        <mxCell id="KHm01q2iQBjfkX1WaD2K-14" value="&lt;font style=&quot;font-size: 17px;&quot;&gt;&lt;span style=&quot;background-color: rgb(255, 255, 255);&quot;&gt;res_McMapTest.xml&lt;/span&gt;&lt;br&gt;&lt;/font&gt;" style="whiteSpace=wrap;html=1;fontFamily=Verdana;sketch=1;curveFitting=1;jiggle=2;shadow=1;fillColor=#d5e8d4;strokeColor=#82b366;gradientColor=none;glass=1;rounded=1;" vertex="1" parent="1">
          <mxGeometry x="250" y="60" width="120" height="60" as="geometry" />
        </mxCell>
        <mxCell id="KHm01q2iQBjfkX1WaD2K-23" style="edgeStyle=orthogonalEdgeStyle;rounded=1;orthogonalLoop=1;jettySize=auto;html=1;entryX=0.5;entryY=1;entryDx=0;entryDy=0;shadow=1;sketch=1;curveFitting=1;jiggle=2;" edge="1" parent="1" source="KHm01q2iQBjfkX1WaD2K-15" target="KHm01q2iQBjfkX1WaD2K-22">
          <mxGeometry relative="1" as="geometry" />
        </mxCell>
        <mxCell id="KHm01q2iQBjfkX1WaD2K-15" value="&lt;font style=&quot;font-size: 17px;&quot;&gt;&lt;span style=&quot;background-color: rgb(255, 255, 255);&quot;&gt;00_mapToJsonMorphalou.xq&lt;/span&gt;&lt;br&gt;&lt;/font&gt;" style="whiteSpace=wrap;html=1;fontFamily=Verdana;sketch=1;curveFitting=1;jiggle=2;shadow=1;fillColor=#f5f5f5;strokeColor=#666666;fontColor=#333333;" vertex="1" parent="1">
          <mxGeometry x="135" y="600" width="120" height="60" as="geometry" />
        </mxCell>
        <mxCell id="KHm01q2iQBjfkX1WaD2K-16" value="&lt;font style=&quot;font-size: 17px;&quot;&gt;&lt;span style=&quot;background-color: rgb(255, 255, 255);&quot;&gt;sources Web Txt&lt;br&gt;&lt;/span&gt;&lt;br&gt;&lt;/font&gt;" style="whiteSpace=wrap;html=1;fontFamily=Verdana;sketch=1;curveFitting=1;jiggle=2;shadow=1;fillColor=#d5e8d4;strokeColor=#82b366;rounded=1;glass=1;" vertex="1" parent="1">
          <mxGeometry x="294" y="890" width="120" height="60" as="geometry" />
        </mxCell>
        <mxCell id="KHm01q2iQBjfkX1WaD2K-19" style="edgeStyle=orthogonalEdgeStyle;rounded=1;orthogonalLoop=1;jettySize=auto;html=1;entryX=0.5;entryY=1;entryDx=0;entryDy=0;entryPerimeter=0;shadow=1;sketch=1;curveFitting=1;jiggle=2;" edge="1" parent="1" source="KHm01q2iQBjfkX1WaD2K-16" target="KHm01q2iQBjfkX1WaD2K-9">
          <mxGeometry relative="1" as="geometry" />
        </mxCell>
        <mxCell id="KHm01q2iQBjfkX1WaD2K-20" style="edgeStyle=orthogonalEdgeStyle;rounded=1;orthogonalLoop=1;jettySize=auto;html=1;entryX=0.5;entryY=1;entryDx=0;entryDy=0;entryPerimeter=0;shadow=1;sketch=1;curveFitting=1;jiggle=2;" edge="1" parent="1" source="KHm01q2iQBjfkX1WaD2K-16" target="KHm01q2iQBjfkX1WaD2K-8">
          <mxGeometry relative="1" as="geometry" />
        </mxCell>
        <mxCell id="KHm01q2iQBjfkX1WaD2K-26" style="edgeStyle=orthogonalEdgeStyle;rounded=1;orthogonalLoop=1;jettySize=auto;html=1;exitX=1;exitY=0.5;exitDx=0;exitDy=0;entryX=0;entryY=0.5;entryDx=0;entryDy=0;shadow=1;sketch=1;curveFitting=1;jiggle=2;" edge="1" parent="1" source="KHm01q2iQBjfkX1WaD2K-22" target="KHm01q2iQBjfkX1WaD2K-2">
          <mxGeometry relative="1" as="geometry">
            <Array as="points">
              <mxPoint x="255" y="490" />
              <mxPoint x="445" y="490" />
            </Array>
          </mxGeometry>
        </mxCell>
        <mxCell id="KHm01q2iQBjfkX1WaD2K-22" value="&lt;font style=&quot;font-size: 17px;&quot;&gt;&lt;span style=&quot;background-color: rgb(255, 255, 255);&quot;&gt;morphalou.json&lt;/span&gt;&lt;br&gt;&lt;/font&gt;" style="whiteSpace=wrap;html=1;fontFamily=Verdana;sketch=1;curveFitting=1;jiggle=2;shadow=1;fillColor=#d5e8d4;strokeColor=#82b366;rounded=1;glass=1;" vertex="1" parent="1">
          <mxGeometry x="135" y="480" width="120" height="60" as="geometry" />
        </mxCell>
        <mxCell id="KHm01q2iQBjfkX1WaD2K-27" style="edgeStyle=orthogonalEdgeStyle;rounded=0;orthogonalLoop=1;jettySize=auto;html=1;shadow=1;sketch=1;curveFitting=1;jiggle=2;" edge="1" parent="1" source="KHm01q2iQBjfkX1WaD2K-2">
          <mxGeometry relative="1" as="geometry">
            <mxPoint x="505" y="400" as="targetPoint" />
          </mxGeometry>
        </mxCell>
        <mxCell id="KHm01q2iQBjfkX1WaD2K-29" style="edgeStyle=orthogonalEdgeStyle;rounded=1;orthogonalLoop=1;jettySize=auto;html=1;shadow=1;sketch=1;curveFitting=1;jiggle=2;" edge="1" parent="1" source="KHm01q2iQBjfkX1WaD2K-28" target="KHm01q2iQBjfkX1WaD2K-7">
          <mxGeometry relative="1" as="geometry" />
        </mxCell>
        <mxCell id="KHm01q2iQBjfkX1WaD2K-28" value="&lt;font style=&quot;font-size: 17px;&quot;&gt;&lt;span style=&quot;background-color: rgb(255, 255, 255);&quot;&gt;sources Labo Txt&lt;br&gt;&lt;/span&gt;&lt;br&gt;&lt;/font&gt;" style="whiteSpace=wrap;html=1;fontFamily=Verdana;sketch=1;curveFitting=1;jiggle=2;shadow=1;fillColor=#f5f5f5;strokeColor=#666666;fontColor=#333333;rounded=1;glass=1;" vertex="1" parent="1">
          <mxGeometry x="690" y="890" width="120" height="60" as="geometry" />
        </mxCell>
        <mxCell id="KHm01q2iQBjfkX1WaD2K-36" style="edgeStyle=orthogonalEdgeStyle;rounded=1;orthogonalLoop=1;jettySize=auto;html=1;exitX=0;exitY=0.5;exitDx=0;exitDy=0;entryX=1.058;entryY=0.617;entryDx=0;entryDy=0;entryPerimeter=0;shadow=1;sketch=1;curveFitting=1;jiggle=2;" edge="1" parent="1" source="KHm01q2iQBjfkX1WaD2K-10" target="KHm01q2iQBjfkX1WaD2K-14">
          <mxGeometry relative="1" as="geometry">
            <Array as="points">
              <mxPoint x="377" y="90" />
            </Array>
          </mxGeometry>
        </mxCell>
        <mxCell id="KHm01q2iQBjfkX1WaD2K-39" value="On crée un Json des &lt;br&gt;infos de Morphalou" style="text;html=1;align=center;verticalAlign=middle;resizable=0;points=[];autosize=1;strokeColor=none;fillColor=none;" vertex="1" parent="1">
          <mxGeometry x="210" y="660" width="130" height="40" as="geometry" />
        </mxCell>
        <mxCell id="KHm01q2iQBjfkX1WaD2K-40" value="On récupère les informations&lt;br&gt;mrphologiques de la base&amp;nbsp;&lt;br&gt;&amp;nbsp;informe dans le corpus" style="text;html=1;align=center;verticalAlign=middle;resizable=0;points=[];autosize=1;strokeColor=none;fillColor=none;" vertex="1" parent="1">
          <mxGeometry x="485" y="535" width="180" height="60" as="geometry" />
        </mxCell>
        <mxCell id="KHm01q2iQBjfkX1WaD2K-41" value="On extrait les unités &lt;br&gt;polylexicales présentes &lt;br&gt;dans le corpus" style="text;html=1;align=center;verticalAlign=middle;resizable=0;points=[];autosize=1;strokeColor=none;fillColor=none;" vertex="1" parent="1">
          <mxGeometry x="600" y="380" width="150" height="60" as="geometry" />
        </mxCell>
        <mxCell id="KHm01q2iQBjfkX1WaD2K-42" value="òn cartographie les index&lt;br&gt;des mots composés&amp;nbsp;" style="text;html=1;align=center;verticalAlign=middle;resizable=0;points=[];autosize=1;strokeColor=none;fillColor=none;" vertex="1" parent="1">
          <mxGeometry x="470" y="120" width="160" height="40" as="geometry" />
        </mxCell>
        <mxCell id="KHm01q2iQBjfkX1WaD2K-44" value="On reconstruit le corpus&lt;br&gt;étiqueté et on revient&amp;nbsp;&lt;br&gt;&amp;nbsp;vers la base" style="text;html=1;align=center;verticalAlign=middle;resizable=0;points=[];autosize=1;strokeColor=none;fillColor=none;" vertex="1" parent="1">
          <mxGeometry x="85" y="260" width="150" height="60" as="geometry" />
        </mxCell>
        <mxCell id="KHm01q2iQBjfkX1WaD2K-45" value="&lt;b&gt;&lt;font style=&quot;font-size: 16px;&quot;&gt;Un étiqueteur mophosyntaxique en Xquery de A à Z&lt;/font&gt;&lt;/b&gt;" style="text;html=1;strokeColor=none;fillColor=none;align=center;verticalAlign=middle;whiteSpace=wrap;rounded=0;" vertex="1" parent="1">
          <mxGeometry x="30" y="10" width="480" height="30" as="geometry" />
        </mxCell>
      </root>
    </mxGraphModel>
  </diagram>
</mxfile>
